<?xml version="1.0" standalone="no"?>
<!DOCTYPE svg PUBLIC "-//W3C//DTD SVG 20010904//EN"
 "http://www.w3.org/TR/2001/REC-SVG-20010904/DTD/svg10.dtd">
<svg version="1.0" xmlns="http://www.w3.org/2000/svg"
 width="2480.000000pt" height="1159.000000pt" viewBox="0 0 2480.000000 1159.000000"
 preserveAspectRatio="xMidYMid meet">

<g transform="translate(0.000000,1159.000000) scale(0.100000,-0.100000)"
fill="#000000" stroke="none">
<path d="M18338 8619 c-332 -39 -593 -200 -713 -444 -58 -116 -77 -209 -78
-370 -1 -215 39 -340 161 -501 116 -153 222 -227 604 -417 365 -182 447 -246
485 -377 13 -45 14 -66 5 -118 -26 -155 -126 -231 -336 -254 -195 -21 -465 34
-770 158 -89 36 -167 67 -173 71 -10 4 -13 -56 -13 -285 l0 -289 73 -31 c416
-173 976 -190 1334 -39 192 81 352 229 427 396 49 111 68 204 68 346 1 161
-17 245 -79 375 -39 82 -58 107 -137 185 -122 121 -231 190 -551 352 -148 75
-293 151 -321 169 -73 46 -123 99 -152 162 -21 46 -24 65 -20 126 6 87 31 139
93 194 61 53 119 73 238 79 172 10 376 -32 612 -125 55 -22 103 -37 107 -33 9
9 201 472 196 476 -9 8 -206 81 -296 111 -253 82 -518 111 -764 83z"/>
<path d="M3000 7125 l0 -1465 310 0 310 0 0 560 0 560 167 -2 167 -3 346 -557
345 -557 343 -1 c188 0 342 2 342 5 0 3 -62 96 -138 208 -272 398 -714 1058
-711 1061 2 2 24 14 49 26 265 133 438 356 480 623 17 100 7 275 -20 385 -69
282 -270 471 -590 555 -211 56 -368 67 -947 67 l-453 0 0 -1465z m1070 931
c41 -9 108 -32 147 -52 123 -59 173 -149 173 -309 0 -182 -74 -297 -229 -356
-92 -35 -195 -48 -373 -49 l-168 0 0 396 0 397 188 -6 c110 -3 218 -12 262
-21z"/>
<path d="M6000 7125 l0 -1465 840 0 840 0 0 255 0 255 -530 0 -530 0 0 380 0
380 495 0 495 0 0 255 0 255 -495 0 -495 0 0 320 0 320 530 0 530 0 0 255 0
255 -840 0 -840 0 0 -1465z"/>
<path d="M8443 8578 c8 -23 857 -2526 924 -2725 l65 -193 338 0 338 0 16 43
c33 89 976 2870 976 2879 0 4 -140 7 -312 6 l-311 -3 -279 -875 c-276 -869
-344 -1100 -399 -1360 -15 -74 -28 -130 -29 -125 -1 22 -90 395 -114 485 -15
52 -154 497 -309 988 l-281 892 -314 0 c-247 0 -313 -3 -309 -12z"/>
<path d="M11880 7125 l0 -1465 840 0 840 0 0 255 0 255 -530 0 -530 0 0 380 0
380 495 0 495 0 0 255 0 255 -495 0 -495 0 0 320 0 320 530 0 530 0 0 255 0
255 -840 0 -840 0 0 -1465z"/>
<path d="M15540 8579 c-287 -21 -530 -99 -685 -221 -117 -92 -206 -237 -246
-403 -29 -118 -32 -335 -6 -439 55 -223 209 -412 435 -536 50 -28 80 -50 77
-58 -5 -13 -317 -479 -655 -977 -97 -143 -180 -266 -184 -272 -6 -10 64 -13
336 -13 l343 0 347 558 346 557 166 3 166 2 0 -560 0 -560 310 0 310 0 0 1465
0 1465 -472 -1 c-260 -1 -525 -6 -588 -10z m440 -895 l0 -396 -197 4 c-166 4
-211 8 -281 27 -144 40 -240 122 -275 235 -6 23 -12 88 -12 146 1 87 4 113 23
155 73 160 234 220 600 224 l142 1 0 -396z"/>
<path d="M20120 7125 l0 -1465 840 0 840 0 0 255 0 255 -530 0 -530 0 0 380 0
380 495 0 495 0 0 255 0 255 -495 0 -495 0 0 320 0 320 530 0 530 0 0 255 0
255 -840 0 -840 0 0 -1465z"/>
<path d="M17633 4733 l6 -448 -26 35 c-121 161 -266 230 -478 230 -198 0 -326
-48 -440 -164 -106 -108 -158 -220 -191 -417 -23 -139 -16 -409 15 -524 76
-290 261 -447 556 -471 207 -17 398 58 517 203 22 26 43 49 48 51 4 1 10 -21
14 -50 4 -29 12 -81 17 -115 l11 -63 44 0 44 0 0 1090 0 1090 -72 0 -71 0 6
-447z m-308 -334 c160 -50 252 -172 291 -389 21 -119 18 -414 -6 -530 -43
-208 -138 -319 -313 -366 -67 -18 -247 -18 -313 0 -216 57 -329 239 -349 561
-8 110 6 273 31 369 53 207 191 348 369 375 80 13 216 3 290 -20z"/>
<path d="M18312 5073 c-37 -15 -58 -163 -30 -216 44 -83 147 -49 161 53 17
115 -48 196 -131 163z"/>
<path d="M13975 4535 c-285 -64 -467 -265 -521 -577 -22 -130 -15 -371 15
-483 68 -255 232 -424 468 -482 144 -36 431 -17 543 36 34 16 35 18 38 79 2
34 1 62 -1 62 -2 0 -30 -9 -63 -20 -140 -48 -354 -64 -469 -35 -150 39 -254
125 -324 267 -90 182 -104 460 -35 679 97 308 381 430 765 329 42 -11 83 -22
91 -25 11 -4 19 9 31 54 9 34 17 62 17 64 0 8 -146 47 -210 57 -89 14 -272 11
-345 -5z"/>
<path d="M15311 4535 c-181 -41 -330 -162 -414 -335 -70 -144 -90 -259 -84
-470 4 -126 10 -184 27 -245 66 -244 215 -413 424 -482 70 -22 98 -26 211 -26
211 -1 342 48 470 177 82 83 131 170 171 301 23 78 27 113 31 265 4 138 2 194
-12 265 -50 271 -195 454 -422 532 -66 22 -98 27 -208 29 -88 3 -151 -1 -194
-11z m341 -135 c163 -50 275 -182 329 -385 30 -111 33 -363 6 -480 -53 -231
-197 -390 -386 -425 -120 -22 -273 -5 -363 41 -57 29 -134 103 -180 173 -140
216 -140 666 0 882 86 132 178 188 362 218 45 8 174 -6 232 -24z"/>
<path d="M19416 4534 c-110 -22 -209 -74 -282 -150 l-63 -65 -6 33 c-3 18 -8
62 -13 98 l-7 65 -57 3 -58 3 0 -761 0 -760 64 0 64 0 5 498 c4 414 7 509 21
566 46 195 158 309 336 344 219 43 402 4 484 -104 78 -102 86 -169 86 -791 l0
-513 65 0 65 0 0 563 c0 525 -1 569 -19 640 -25 96 -52 148 -108 208 -59 63
-116 95 -210 119 -91 24 -260 26 -367 4z"/>
<path d="M20928 4535 c-232 -59 -368 -238 -368 -485 0 -181 73 -321 212 -407
60 -37 60 -37 37 -52 -13 -8 -50 -41 -81 -72 -45 -45 -60 -69 -73 -113 -29
-98 3 -186 88 -243 l48 -32 -28 -7 c-110 -25 -242 -123 -288 -214 -55 -108
-54 -260 3 -363 52 -96 173 -178 313 -212 92 -22 295 -30 418 -16 205 24 354
84 452 181 99 98 144 237 122 379 -20 132 -84 219 -199 273 -96 45 -189 57
-431 58 -237 0 -301 9 -345 49 -24 22 -32 38 -35 77 -6 59 11 105 56 157 62
70 88 79 215 78 203 -3 340 42 445 148 99 99 136 207 129 370 -5 109 -26 178
-81 263 l-35 56 136 7 c75 3 145 9 155 11 13 4 17 16 17 50 l0 44 -239 0
c-157 0 -249 4 -268 11 -45 19 -307 21 -375 4z m300 -109 c107 -29 173 -84
219 -181 26 -56 28 -68 28 -190 0 -112 -3 -136 -22 -177 -32 -70 -94 -131
-166 -164 -58 -27 -70 -29 -187 -29 -145 0 -197 14 -275 73 -36 27 -60 56 -85
106 -34 68 -35 71 -35 190 0 112 2 126 28 181 45 97 115 157 222 191 54 17
208 17 273 0z m244 -1381 c68 -21 121 -63 150 -118 17 -33 22 -60 22 -122 0
-178 -101 -291 -311 -346 -114 -30 -350 -38 -463 -15 -100 21 -190 65 -231
115 -83 101 -74 307 19 404 41 43 83 66 164 87 65 18 100 19 333 16 214 -2
270 -6 317 -21z"/>
<path d="M18290 3760 l0 -760 65 0 65 0 0 760 0 760 -65 0 -65 0 0 -760z"/>
</g>
</svg>
